<?xml version="1.0" encoding="UTF-8" standalone="no"?>
<!DOCTYPE svg PUBLIC "-//W3C//DTD SVG 1.1//EN"
 "http://www.w3.org/Graphics/SVG/1.1/DTD/svg11.dtd">
<!-- Generated by graphviz version 2.43.0 (0)
 -->
<!-- Title: browserserver Pages: 1 -->
<svg width="335pt" height="126pt"
 viewBox="0.00 0.00 335.13 126.00" xmlns="http://www.w3.org/2000/svg" xmlns:xlink="http://www.w3.org/1999/xlink">
<g id="graph0" class="graph" transform="scale(1 1) rotate(0) translate(4 122)">
<title>browserserver</title>
<polygon fill="white" stroke="transparent" points="-4,4 -4,-122 331.13,-122 331.13,4 -4,4"/>
<g id="clust1" class="cluster">
<title>cluster0</title>
<polygon fill="none" stroke="#cd2626" points="8,-8 8,-110 319.13,-110 319.13,-8 8,-8"/>
<text text-anchor="middle" x="163.57" y="-94.8" font-family="Times,serif" font-size="14.00" fill="#cd2626">Request</text>
</g>
<!-- browser -->
<g id="node1" class="node">
<title>browser</title>
<polygon fill="none" stroke="black" points="108.37,-66 15.88,-66 15.88,-30 108.37,-30 108.37,-66"/>
<text text-anchor="middle" x="62.12" y="-43.8" font-family="Times,serif" font-size="14.00">Web Browser</text>
</g>
<!-- server -->
<g id="node2" class="node">
<title>server</title>
<polygon fill="#7fff00" stroke="black" points="306.91,-36.57 306.91,-59.43 270.57,-75.6 219.17,-75.6 182.83,-59.43 182.83,-36.57 219.17,-20.4 270.57,-20.4 306.91,-36.57"/>
<polygon fill="none" stroke="black" points="310.9,-33.96 310.9,-62.04 271.41,-79.61 218.33,-79.61 178.84,-62.04 178.84,-33.96 218.33,-16.39 271.41,-16.39 310.9,-33.96"/>
<text text-anchor="start" x="212.19" y="-51.8" font-family="Times,serif" font-size="14.00">Web Server</text>
<text text-anchor="start" x="226.01" y="-37.8" font-family="Times,serif" font-style="italic" font-size="14.00">app.py</text>
</g>
<!-- browser&#45;&gt;server -->
<g id="edge1" class="edge">
<title>browser&#45;&gt;server</title>
<path fill="none" stroke="black" d="M108.27,-48C126.43,-48 147.87,-48 168.27,-48"/>
<polygon fill="black" stroke="black" points="168.51,-51.5 178.51,-48 168.51,-44.5 168.51,-51.5"/>
<text text-anchor="middle" x="143.43" y="-50.8" font-family="Times,serif" font-size="14.00">GET /</text>
</g>
</g>
</svg>
