<?xml version="1.0" encoding="UTF-8" standalone="no"?>
<!DOCTYPE svg PUBLIC "-//W3C//DTD SVG 1.1//EN"
 "http://www.w3.org/Graphics/SVG/1.1/DTD/svg11.dtd">
<!-- Generated by graphviz version 2.43.0 (0)
 -->
<!-- Title: browserserver Pages: 1 -->
<svg width="398pt" height="126pt"
 viewBox="0.00 0.00 397.99 126.00" xmlns="http://www.w3.org/2000/svg" xmlns:xlink="http://www.w3.org/1999/xlink">
<g id="graph0" class="graph" transform="scale(1 1) rotate(0) translate(4 122)">
<title>browserserver</title>
<polygon fill="white" stroke="transparent" points="-4,4 -4,-122 393.99,-122 393.99,4 -4,4"/>
<g id="clust1" class="cluster">
<title>cluster1</title>
<polygon fill="none" stroke="#cd2626" points="8,-8 8,-110 381.99,-110 381.99,-8 8,-8"/>
<text text-anchor="middle" x="194.99" y="-94.8" font-family="Times,serif" font-size="14.00" fill="#cd2626">Response</text>
</g>
<!-- browser1 -->
<g id="node1" class="node">
<title>browser1</title>
<polygon fill="none" stroke="black" points="108.37,-66 15.88,-66 15.88,-30 108.37,-30 108.37,-66"/>
<text text-anchor="middle" x="62.12" y="-43.8" font-family="Times,serif" font-size="14.00">Web Browser</text>
</g>
<!-- server1 -->
<g id="node2" class="node">
<title>server1</title>
<polygon fill="#7fff00" stroke="black" points="369.77,-36.57 369.77,-59.43 333.42,-75.6 282.03,-75.6 245.68,-59.43 245.68,-36.57 282.03,-20.4 333.42,-20.4 369.77,-36.57"/>
<polygon fill="none" stroke="black" points="373.75,-33.96 373.75,-62.04 334.27,-79.61 281.18,-79.61 241.7,-62.04 241.7,-33.96 281.18,-16.39 334.27,-16.39 373.75,-33.96"/>
<text text-anchor="start" x="275.05" y="-51.8" font-family="Times,serif" font-size="14.00">Web Server</text>
<text text-anchor="start" x="288.87" y="-37.8" font-family="Times,serif" font-style="italic" font-size="14.00">app.py</text>
</g>
<!-- browser1&#45;&gt;server1 -->
<g id="edge1" class="edge">
<title>browser1&#45;&gt;server1</title>
<path fill="none" stroke="black" d="M118.83,-48C155.34,-48 203.22,-48 241.5,-48"/>
<polygon fill="black" stroke="black" points="118.37,-44.5 108.37,-48 118.37,-51.5 118.37,-44.5"/>
<text text-anchor="start" x="126.25" y="-65.8" font-family="Times,serif" font-style="italic" font-size="14.00">String of HTML!</text>
<text text-anchor="start" x="128.15" y="-51.8" font-family="Times,serif" font-size="14.00">&lt;html&gt;...&lt;html&gt;</text>
</g>
</g>
</svg>
